<svg width="86" height="67" viewBox="0 0 86 67" fill="white" xmlns="http://www.w3.org/2000/svg">
<path d="M74.8359 66.99H1.93142C0.445615 66.99 -0.479886 65.3841 0.260515 64.0984L36.7102 0.964272C37.4506 -0.321424 39.3116 -0.321424 40.052 0.964272L46.6856 12.4605C47.0308 13.0558 47.0308 13.7912 46.6856 14.3916L26.5798 49.2204C25.8394 50.5061 26.7649 52.112 28.2507 52.112H68.4674C69.1578 52.112 69.7931 52.4771 70.1383 53.0775L76.5068 64.1034C77.2522 65.3891 76.3217 67 74.8359 67V66.99Z" fill="white"/>
<path d="M84.0208 52.1069H70.5635C69.9532 52.1069 69.3929 51.7818 69.0878 51.2565L47.7362 14.2715C47.431 13.7462 47.431 13.0958 47.7362 12.5706L54.4648 0.919246C55.1202 -0.216368 56.7611 -0.216368 57.4164 0.919246L85.4966 49.5556C86.152 50.6912 85.3315 52.1119 84.0208 52.1119V52.1069Z" fill="white"/>
</svg>
